<mxfile host="app.diagrams.net" modified="2023-07-04T10:55:17.832Z" agent="Mozilla/5.0 (Windows NT 10.0; Win64; x64) AppleWebKit/537.36 (KHTML, like Gecko) Chrome/114.0.0.0 Safari/537.36 Edg/114.0.1823.67" version="21.5.2" etag="7FbC-9tP3QxQUzx91y07" type="github">
  <diagram name="Page-1" id="qfpwBZO-rxQUD2Wml51f">
    <mxGraphModel>
      <root>
        <mxCell id="0" />
        <mxCell id="1" parent="0" />
      </root>
    </mxGraphModel>
  </diagram>
</mxfile>
